<svg id="about-step-one-line" xmlns="http://www.w3.org/2000/svg" viewBox="0 0 193.87 900"><defs><style>.cls-1{fill:none;stroke:#000;stroke-miterlimit:10;stroke-width:2px;}</style></defs><circle id="circle" class="cls-1" cx="97.13" cy="198.21" r="95.74"/><line id="line_1" class="cls-1" x1="96.96" y1="79" x2="96.96"/><path class="cls-1" d="M219.83,150.07" transform="translate(-212.32)"/><line id="line_1-2" data-name="line_1" class="cls-1" x1="96.96" y1="317.16" x2="97.54" y2="582.84"/><path id="circle-2" data-name="circle" class="cls-1" d="M231.08,108.26A119.08,119.08,0,0,1,387,107.9" transform="translate(-212.32)"/><path id="circle-3" data-name="circle" class="cls-1" d="M387.43,287.84a119.1,119.1,0,0,1-156-.36" transform="translate(-212.32)"/><circle id="circle-4" data-name="circle" class="cls-1" cx="96.74" cy="702.05" r="95.74"/><path class="cls-1" d="M219.43,653.91" transform="translate(-212.32)"/><line id="line_1-3" data-name="line_1" class="cls-1" x1="96.56" y1="821" x2="96.74" y2="900"/><path id="circle-5" data-name="circle" class="cls-1" d="M230.68,612.1a119.1,119.1,0,0,1,156-.36" transform="translate(-212.32)"/><path id="circle-6" data-name="circle" class="cls-1" d="M387,791.68a119.1,119.1,0,0,1-155.95-.35" transform="translate(-212.32)"/></svg>