<svg xmlns="http://www.w3.org/2000/svg" viewBox="0 0 238.87 900">
<defs>
<style>.cls-1,.cls-2{fill:none;}.cls-1{stroke:#f2c84c;stroke-miterlimit:10;stroke-width:2px;}</style>
</defs>
<line class="line line1 cls-1" x1="119.5" y1="79" x2="119.5" pathLength="1" />
<g class="groupArc groupArc1">
<path class="arc arc1 cls-1" d="M238.27,102.34a119.13,119.13,0,0,1,141.65,0" transform="translate(-189.78)" pathLength="1" />
<path class="arc arc2 cls-1" d="M379.68,293.82a119.11,119.11,0,0,1-141.64,0" transform="translate(-189.78)" pathLength="1"/>
</g>
<circle class="circle circle1 cls-1" cx="119.79" cy="198.08" r="95.74" pathLength="1"/>
<circle class="cls-2" cx="119.08" cy="198.08" r="119.08" pathLength="1"/>
<line class="line line2 cls-1" x1="119.08" y1="317.16" x2="119.79" y2="582.84" pathLength="1"/>
<g class="groupArc groupArc2">
<path class="arc arc3 cls-1" d="M238.75,606.18a119.11,119.11,0,0,1,141.64,0" transform="translate(-189.78)" pathLength="1"/>
<path class="arc arc4 cls-1" d="M380.15,797.66a119.13,119.13,0,0,1-141.65,0" transform="translate(-189.78)" pathLength="1"/>
</g>
<circle class="circle circle2 cls-1" cx="119.08" cy="701.92" r="95.74" pathLength="1"/>
<circle class="cls-2" cx="119.79" cy="701.92" r="119.08" pathLength="1"/>
<line class="line line3 cls-1" x1="119.37" y1="821" x2="119.37" y2="900" pathLength="1"/>
</svg>