<svg xmlns="http://www.w3.org/2000/svg" id="logosandtypes_com" data-name="logosandtypes com" viewBox="0 0 150 150"><defs><style>.cls-1{fill:none;}.cls-2{fill:white;}</style></defs><path class="cls-1" d="M0,0H150V150H0Z" transform="translate(0 0)"/><path class="cls-2" d="M81.74,61.53l14.34,5.26c2.32.82,5.14-.27,5.14-2V28.46c0-.83-.7-1.57-1.82-2L85.06,21.23c-2.32-.82-5.14.27-5.14,2V59.53c0,.84.7,1.6,1.82,2" transform="translate(0 0)"/><path class="cls-2" d="M81.74,126.76,96.08,132c2.32.82,5.14-.27,5.14-2V93.7a2.34,2.34,0,0,0-1.82-2L85.06,86.44c-2.32-.82-5.14.28-5.14,2v36.33a2.34,2.34,0,0,0,1.82,2" transform="translate(0 0)"/><path class="cls-2" d="M55.17,49.37l14.35,5.27c2.32.82,5.11-.28,5.11-2V13.11c0-.83-.69-1.59-1.81-2L58.5,5.86c-2.33-.82-5.14.27-5.14,2V47.38a2.33,2.33,0,0,0,1.81,2" transform="translate(0 0)"/><path class="cls-2" d="M55.17,136.47l14.35,5.27c2.32.82,5.11-.27,5.11-2V100.32a2.35,2.35,0,0,0-1.81-2L58.5,93.06c-2.33-.82-5.14.27-5.14,2v39.43a2.33,2.33,0,0,0,1.81,2" transform="translate(0 0)"/><path class="cls-2" d="M48.09,14.6c0-.83-.7-1.58-1.82-2L31.93,7.34c-2.32-.82-5.14.28-5.14,2V133a2.34,2.34,0,0,0,1.82,2L43,140.26c2.32.82,5.14-.27,5.14-2Z" transform="translate(0 0)"/><path class="cls-2" d="M126,47.43l-14.35-5.27c-2.31-.81-5.11.28-5.11,2v59.68c0,.83.69,1.59,1.82,2l14.34,5.26c2.32.82,5.14-.27,5.14-2V49.42c0-.83-.7-1.59-1.82-2" transform="translate(0 0)"/></svg>