<svg width="135" height="25" xmlns="http://www.w3.org/2000/svg" viewBox="0 0 676.21 130.85"><g><path fill="white" stroke-width="0" d="M325.24,2.02v49.65c-3-4.78-6.26-9.61-9.78-14.49-3.52-4.88-6.77-9.54-9.78-14-3-4.45-5.51-8.53-7.53-12.24-2.02-3.7-3.02-6.68-3.02-8.93h-22.11l-15.17,74.17v36.39h33.48v-50.07c3.19,4.97,6.59,10.01,10.2,15.12,3.61,5.11,6.94,9.92,9.99,14.42,3.05,4.5,5.58,8.56,7.59,12.17,2.02,3.61,3.03,6.4,3.03,8.37h36.43V2.02h-33.34Z"></path><path fill="white" stroke-width="0" d="M444.49,96.33c-2.53-5.63-5.27-11.16-8.23-16.59-2.95-5.44-6.17-10.66-9.63-15.68-3.47-5.01-7.31-9.49-11.53-13.43,6.47-6.75,12.17-14.13,17.09-22.15,4.92-8.02,9.21-16.85,12.87-26.51h-39.38c-1.69,4.13-3.56,8.14-5.63,12.02-2.06,3.89-4.38,7.59-6.96,11.11-2.58,3.52-5.49,6.75-8.72,9.71-2.69,2.46-5.81,4.61-9.18,6.58v38.27c2.25-1.16,4.49-2.32,6.58-3.5,2.72-1.55,5.34-3.16,7.88-4.85,3.09,3.19,5.79,6.54,8.09,10.06,2.3,3.52,4.36,7.08,6.19,10.69,1.83,3.61,3.52,7.15,5.06,10.62,1.55,3.47,3.07,6.75,4.57,9.85h38.25c-2.35-5.15-4.78-10.55-7.31-16.17Z"></path><path fill="white" stroke-width="0" d="M157.92,38.23h-30.16V1.94h-35.36v.13H0v31.82h28.64v78.71h36.01V33.79h27.75v78.65h35.77v-38.75h30.07v38.77h20.86c5.02-24.7,10.05-49.41,15.09-74.18V2.15h-36.27v36.08Z"></path><path fill="white" stroke-width="0" d="M196.28,112.51h36.99c7.53-37.04,14.99-73.73,22.48-110.56h-36.99c-7.55,37.11-15.01,73.79-22.48,110.56Z"></path><polygon fill="white" stroke-width="0" points="546.72 53.29 483.92 53.29 483.92 3.17 472.5 3.17 472.5 114.2 483.92 114.2 483.92 62.49 546.72 62.49 546.72 114.2 558.14 114.2 558.14 3.17 546.72 3.17 546.72 53.29"></polygon><path fill="white" stroke-width="0" d="M676.21,58.68c0-34.1-23.16-58.68-55.04-58.68s-55.04,24.58-55.04,58.68,23.31,58.69,55.04,58.69c10.47,0,19.99-2.7,28.07-7.45l17.6,20.94,7.14-5.55-17.29-20.62c12.21-10.63,19.51-26.8,19.51-46ZM649.72,96.28l-24.27-29.03-7.14,5.71,24.11,28.87c-6.19,3.49-13.32,5.55-21.26,5.55-25.22,0-43.46-20.46-43.46-48.69s18.24-48.69,43.46-48.69,43.62,20.46,43.62,48.69c0,15.7-5.71,28.87-15.07,37.59Z"></path></g></svg>