<svg height="150px" id="Vectors" xmlns="http://www.w3.org/2000/svg" viewBox="0 0 1204.22 626.31"><defs><style>.cls-1{fill:#373373;}.cls-2{fill:#f1454f;}.cls-3{fill:#f8aa17;}.cls-4{fill:#2681db;}.cls-5{fill:#9b44ad;}</style></defs>
<path class="cls-1" d="M60.79,672.31c125.9,3.8,113.73-155.57,113.73-155.57S172.27,229.36,172.27,219s-8.3-8.29-8.3-8.29L98.5,219s-9.21,0-9.21,9.34-1,321.55-1,321.55-1.72,63.65-58.58,49c0,0-6.27-.62-6.93,11l-7.16,50.53S12,670,23.14,670.75,60.79,672.31,60.79,672.31Z" transform="translate(-15.03 -46.07)"/>
<circle class="cls-2" cx="116.6" cy="52.68" r="52.68"/>
<circle class="cls-3" cx="258.65" cy="112.61" r="52.68"/>
<circle class="cls-4" cx="702.7" cy="114.61" r="52.68"/>
<path class="cls-1" d="M239.22,280.46l68.83-9.84s7.95.76,8.33,7.95.37,252.65.37,252.65,1.24,7.25-8,7.25H239.22s-8.26.68-8.09-7.71,0-243.57,0-243.57S231,281.63,239.22,280.46Z" transform="translate(-15.03 -46.07)"/>
<path class="cls-1" d="M683.75,280.46l68.84-9.84s7.94.76,8.32,7.95.37,252.65.37,252.65,1.24,7.25-8,7.25H683.75s-8.26.68-8.09-7.71,0-243.57,0-243.57S675.54,281.63,683.75,280.46Z" transform="translate(-15.03 -46.07)"/>
<path class="cls-1" d="M1131.82,283l68.83-9.84s7.95.76,8.32,7.94.38,252.66.38,252.66,1.24,7.25-8,7.25h-69.52s-8.26.68-8.09-7.71,0-243.57,0-243.57S1123.61,284.15,1131.82,283Z" transform="translate(-15.03 -46.07)"/>
<path class="cls-1" d="M370.08,81.52l70.3-9.62s7.65.91,7.83,6.2.24,248.93.24,248.93.57,3.66,4.57,2.29,95.24-117.16,95.24-117.16a5.68,5.68,0,0,1,4-1.67l87.78.3s10.07,4,5.32,12.25S532.19,357.92,532.19,357.92s-2,1.29-.06,3.79,117.7,165.23,117.7,165.23,6.38,12.75-4.67,12.75-88.22-.15-88.22-.15a6.47,6.47,0,0,1-3.88-2.18c-1.77-2-99.82-142-99.82-142s-2.91-2.59-4.56.39-.63,136.45-.63,136.45.4,7.59-6.91,7.49-71.61,0-71.61,0-5.88-1.68-6.21-7.18,0-444.71,0-444.71S363.93,83.33,370.08,81.52Z" transform="translate(-15.03 -46.07)"/>
<path class="cls-1" d="M814.42,81.52l70.29-9.62s7.66.91,7.84,6.2.24,248.93.24,248.93.57,3.66,4.57,2.29,95.23-117.16,95.23-117.16a5.71,5.71,0,0,1,4-1.67l87.79.3s10.07,4,5.32,12.25S976.53,357.92,976.53,357.92s-2,1.29-.06,3.79,117.7,165.23,117.7,165.23,6.38,12.75-4.67,12.75-88.22-.15-88.22-.15a6.47,6.47,0,0,1-3.88-2.18c-1.77-2-99.82-142-99.82-142s-2.91-2.59-4.56.39-.63,136.45-.63,136.45.39,7.59-6.92,7.49-71.6,0-71.6,0-5.89-1.68-6.21-7.18,0-444.71,0-444.71S808.27,83.33,814.42,81.52Z" transform="translate(-15.03 -46.07)"/>
<circle class="cls-5" cx="1151.53" cy="114.61" r="52.68"/>
</svg>