<?xml version="1.0" standalone="no"?>
<!DOCTYPE svg PUBLIC "-//W3C//DTD SVG 20010904//EN"
 "http://www.w3.org/TR/2001/REC-SVG-20010904/DTD/svg10.dtd">
<svg version="1.0" xmlns="http://www.w3.org/2000/svg"
 width="260.000000pt" height="260.000000pt" viewBox="0 0 260.000000 260.000000"
 preserveAspectRatio="xMidYMid meet">
<metadata>
Created by potrace 1.14, written by Peter Selinger 2001-2017
</metadata>
<g transform="translate(0.000000,260.000000) scale(0.100000,-0.100000)"
fill="#000000" stroke="none">
<path d="M1169 2596 c-2 -2 -30 -7 -61 -10 -32 -4 -93 -16 -135 -27 -424 -111
-763 -426 -902 -837 -54 -158 -66 -242 -65 -432 0 -161 16 -259 66 -405 152
-451 564 -794 1036 -862 98 -15 413 -6 442 12 4 2 22 7 41 10 56 10 204 62
271 96 348 175 593 477 687 846 29 112 36 177 36 323 0 113 -3 149 -21 260 -3
19 -21 81 -39 137 -149 447 -520 776 -981 869 -71 14 -364 30 -375 20z"/>
</g>
</svg>
