<?xml version="1.0" standalone="no"?>
<!DOCTYPE svg PUBLIC "-//W3C//DTD SVG 20010904//EN"
 "http://www.w3.org/TR/2001/REC-SVG-20010904/DTD/svg10.dtd">
<svg version="1.0" xmlns="http://www.w3.org/2000/svg"
 width="275.000000pt" height="275.000000pt" viewBox="0 0 275.000000 275.000000"
 preserveAspectRatio="xMidYMid meet">
<metadata>
Created by potrace 1.11, written by Peter Selinger 2001-2013
</metadata>
<g transform="translate(0.000000,275.000000) scale(0.100000,-0.100000)"
fill="#000000" stroke="none">
<path d="M370 1670 l0 -1080 1000 0 1000 0 0 780 0 780 -22 1 c-29 1 -1348 1
-1368 0 -13 -1 -15 -61 -14 -479 l1 -477 421 -3 422 -2 0 180 c0 164 -2 180
-17 181 -10 0 -117 2 -238 2 l-220 2 -3 118 -3 117 359 0 359 0 0 -415 c0
-415 0 -415 -21 -419 -11 -3 -308 -4 -658 -4 l-638 1 0 718 0 719 820 0 820 0
0 180 0 180 -1000 0 -1000 0 0 -1080z"/>
<path d="M387 352 c-15 -3 -17 -23 -17 -178 l0 -174 1000 0 1000 0 -2 177 -3
176 -981 1 c-539 1 -988 0 -997 -2z"/>
</g>
</svg>
